solid CATIA STL
  facet normal  0.000000e+00  0.000000e+00  9.999999e-01
    outer loop
      vertex -1.500000e+01  2.000000e+00  1.500000e+00
      vertex -1.600000e+00  4.950000e+00  1.500000e+00
      vertex -1.439104e+01  5.061468e+00  1.500000e+00
    endloop
  endfacet
  facet normal  0.000000e+00  0.000000e+00  1.000000e+00
    outer loop
      vertex  1.600000e+00  4.950000e+00  1.500000e+00
      vertex  1.500000e+01  2.000000e+00  1.500000e+00
      vertex  1.439104e+01  5.061468e+00  1.500000e+00
    endloop
  endfacet
  facet normal  0.000000e+00  0.000000e+00  1.000000e+00
    outer loop
      vertex  1.600000e+00  4.950000e+00  1.500000e+00
      vertex  1.439104e+01  5.061468e+00  1.500000e+00
      vertex  1.265685e+01  7.656854e+00  1.500000e+00
    endloop
  endfacet
  facet normal  0.000000e+00  0.000000e+00  1.000000e+00
    outer loop
      vertex  1.600000e+00  4.950000e+00  1.500000e+00
      vertex  1.265685e+01  7.656854e+00  1.500000e+00
      vertex  1.006147e+01  9.391036e+00  1.500000e+00
    endloop
  endfacet
  facet normal  0.000000e+00  0.000000e+00  1.000000e+00
    outer loop
      vertex  1.600000e+00  4.950000e+00  1.500000e+00
      vertex  1.006147e+01  9.391036e+00  1.500000e+00
      vertex  7.000000e+00  1.000000e+01  1.500000e+00
    endloop
  endfacet
  facet normal  0.000000e+00  0.000000e+00  1.000000e+00
    outer loop
      vertex  1.600000e+00  4.950000e+00  1.500000e+00
      vertex  7.000000e+00  1.000000e+01  1.500000e+00
      vertex  1.600000e+00  1.000000e+01  1.500000e+00
    endloop
  endfacet
  facet normal  0.000000e+00  0.000000e+00  1.000000e+00
    outer loop
      vertex  1.500000e+01  2.000000e+00  1.500000e+00
      vertex  1.600000e+00  4.950000e+00  1.500000e+00
      vertex  0.000000e+00  4.950000e+00  1.500000e+00
    endloop
  endfacet
  facet normal  0.000000e+00  0.000000e+00  1.000000e+00
    outer loop
      vertex  1.500000e+01  2.000000e+00  1.500000e+00
      vertex  0.000000e+00  4.950000e+00  1.500000e+00
      vertex -1.600000e+00  4.950000e+00  1.500000e+00
    endloop
  endfacet
  facet normal  0.000000e+00  0.000000e+00  1.000000e+00
    outer loop
      vertex  1.500000e+01  2.000000e+00  1.500000e+00
      vertex -1.600000e+00  4.950000e+00  1.500000e+00
      vertex -1.500000e+01  2.000000e+00  1.500000e+00
    endloop
  endfacet
  facet normal  -0.000000e+00  0.000000e+00  1.000000e+00
    outer loop
      vertex  1.500000e+01  2.000000e+00  1.500000e+00
      vertex -1.500000e+01  2.000000e+00  1.500000e+00
      vertex -1.500000e+01  0.000000e+00  1.500000e+00
    endloop
  endfacet
  facet normal  0.000000e+00  0.000000e+00  1.000000e+00
    outer loop
      vertex  1.500000e+01  2.000000e+00  1.500000e+00
      vertex -1.500000e+01  0.000000e+00  1.500000e+00
      vertex  1.500000e+01  0.000000e+00  1.500000e+00
    endloop
  endfacet
  facet normal  -0.000000e+00  0.000000e+00  1.000000e+00
    outer loop
      vertex -1.600000e+00  1.000000e+01  1.500000e+00
      vertex -7.000000e+00  1.000000e+01  1.500000e+00
      vertex -1.600000e+00  4.950000e+00  1.500000e+00
    endloop
  endfacet
  facet normal  0.000000e+00  0.000000e+00  1.000000e+00
    outer loop
      vertex -1.600000e+00  4.950000e+00  1.500000e+00
      vertex -7.000000e+00  1.000000e+01  1.500000e+00
      vertex -1.006147e+01  9.391036e+00  1.500000e+00
    endloop
  endfacet
  facet normal  0.000000e+00  0.000000e+00  9.999999e-01
    outer loop
      vertex -1.600000e+00  4.950000e+00  1.500000e+00
      vertex -1.006147e+01  9.391036e+00  1.500000e+00
      vertex -1.439104e+01  5.061468e+00  1.500000e+00
    endloop
  endfacet
  facet normal  0.000000e+00  0.000000e+00  1.000000e+00
    outer loop
      vertex -1.439104e+01  5.061468e+00  1.500000e+00
      vertex -1.006147e+01  9.391036e+00  1.500000e+00
      vertex -1.265685e+01  7.656854e+00  1.500000e+00
    endloop
  endfacet
  facet normal  -0.000000e+00  0.000000e+00 -9.999999e-01
    outer loop
      vertex -1.439104e+01  5.061468e+00 -1.500000e+00
      vertex -1.600000e+00  4.950000e+00 -1.500000e+00
      vertex -1.500000e+01  2.000000e+00 -1.500000e+00
    endloop
  endfacet
  facet normal  0.000000e+00  0.000000e+00 -1.000000e+00
    outer loop
      vertex  1.600000e+00  4.950000e+00 -1.500000e+00
      vertex  1.600000e+00  1.000000e+01 -1.500000e+00
      vertex  7.000000e+00  1.000000e+01 -1.500000e+00
    endloop
  endfacet
  facet normal  0.000000e+00  -0.000000e+00 -1.000000e+00
    outer loop
      vertex  1.600000e+00  4.950000e+00 -1.500000e+00
      vertex  7.000000e+00  1.000000e+01 -1.500000e+00
      vertex  1.006147e+01  9.391036e+00 -1.500000e+00
    endloop
  endfacet
  facet normal  0.000000e+00  -0.000000e+00 -1.000000e+00
    outer loop
      vertex  1.600000e+00  4.950000e+00 -1.500000e+00
      vertex  1.006147e+01  9.391036e+00 -1.500000e+00
      vertex  1.265685e+01  7.656854e+00 -1.500000e+00
    endloop
  endfacet
  facet normal  0.000000e+00  -0.000000e+00 -1.000000e+00
    outer loop
      vertex  1.600000e+00  4.950000e+00 -1.500000e+00
      vertex  1.265685e+01  7.656854e+00 -1.500000e+00
      vertex  1.439104e+01  5.061468e+00 -1.500000e+00
    endloop
  endfacet
  facet normal  0.000000e+00  -0.000000e+00 -1.000000e+00
    outer loop
      vertex  1.600000e+00  4.950000e+00 -1.500000e+00
      vertex  1.439104e+01  5.061468e+00 -1.500000e+00
      vertex  1.500000e+01  2.000000e+00 -1.500000e+00
    endloop
  endfacet
  facet normal  0.000000e+00  0.000000e+00 -1.000000e+00
    outer loop
      vertex  1.500000e+01  2.000000e+00 -1.500000e+00
      vertex  1.500000e+01  0.000000e+00 -1.500000e+00
      vertex -1.500000e+01  0.000000e+00 -1.500000e+00
    endloop
  endfacet
  facet normal  0.000000e+00  0.000000e+00 -1.000000e+00
    outer loop
      vertex  1.500000e+01  2.000000e+00 -1.500000e+00
      vertex -1.500000e+01  0.000000e+00 -1.500000e+00
      vertex -1.500000e+01  2.000000e+00 -1.500000e+00
    endloop
  endfacet
  facet normal  0.000000e+00  0.000000e+00 -1.000000e+00
    outer loop
      vertex  1.500000e+01  2.000000e+00 -1.500000e+00
      vertex -1.500000e+01  2.000000e+00 -1.500000e+00
      vertex -1.600000e+00  4.950000e+00 -1.500000e+00
    endloop
  endfacet
  facet normal  0.000000e+00  0.000000e+00 -1.000000e+00
    outer loop
      vertex  1.500000e+01  2.000000e+00 -1.500000e+00
      vertex -1.600000e+00  4.950000e+00 -1.500000e+00
      vertex  0.000000e+00  4.950000e+00 -1.500000e+00
    endloop
  endfacet
  facet normal  0.000000e+00  0.000000e+00 -1.000000e+00
    outer loop
      vertex  1.500000e+01  2.000000e+00 -1.500000e+00
      vertex  0.000000e+00  4.950000e+00 -1.500000e+00
      vertex  1.600000e+00  4.950000e+00 -1.500000e+00
    endloop
  endfacet
  facet normal  0.000000e+00  0.000000e+00 -1.000000e+00
    outer loop
      vertex -1.600000e+00  1.000000e+01 -1.500000e+00
      vertex -1.600000e+00  4.950000e+00 -1.500000e+00
      vertex -7.000000e+00  1.000000e+01 -1.500000e+00
    endloop
  endfacet
  facet normal  0.000000e+00  -0.000000e+00 -1.000000e+00
    outer loop
      vertex -7.000000e+00  1.000000e+01 -1.500000e+00
      vertex -1.600000e+00  4.950000e+00 -1.500000e+00
      vertex -1.006147e+01  9.391036e+00 -1.500000e+00
    endloop
  endfacet
  facet normal  0.000000e+00  0.000000e+00 -1.000000e+00
    outer loop
      vertex -1.600000e+00  4.950000e+00 -1.500000e+00
      vertex -1.439104e+01  5.061468e+00 -1.500000e+00
      vertex -1.006147e+01  9.391036e+00 -1.500000e+00
    endloop
  endfacet
  facet normal  0.000000e+00  0.000000e+00 -1.000000e+00
    outer loop
      vertex -1.006147e+01  9.391036e+00 -1.500000e+00
      vertex -1.439104e+01  5.061468e+00 -1.500000e+00
      vertex -1.265685e+01  7.656854e+00 -1.500000e+00
    endloop
  endfacet
  facet normal -1.000000e+00  0.000000e+00  0.000000e+00
    outer loop
      vertex -1.500000e+01  0.000000e+00 -1.500000e+00
      vertex -1.500000e+01  0.000000e+00  1.500000e+00
      vertex -1.500000e+01  2.000000e+00 -1.500000e+00
    endloop
  endfacet
  facet normal -1.000000e+00  0.000000e+00  0.000000e+00
    outer loop
      vertex -1.500000e+01  2.000000e+00 -1.500000e+00
      vertex -1.500000e+01  0.000000e+00  1.500000e+00
      vertex -1.500000e+01  2.000000e+00  1.500000e+00
    endloop
  endfacet
  facet normal -9.807852e-01  1.950904e-01  0.000000e+00
    outer loop
      vertex -1.500000e+01  2.000000e+00 -1.500000e+00
      vertex -1.500000e+01  2.000000e+00  1.500000e+00
      vertex -1.439104e+01  5.061468e+00 -1.500000e+00
    endloop
  endfacet
  facet normal -9.807852e-01  1.950904e-01  0.000000e+00
    outer loop
      vertex -1.439104e+01  5.061468e+00 -1.500000e+00
      vertex -1.500000e+01  2.000000e+00  1.500000e+00
      vertex -1.439104e+01  5.061468e+00  1.500000e+00
    endloop
  endfacet
  facet normal -8.314698e-01  5.555702e-01  0.000000e+00
    outer loop
      vertex -1.439104e+01  5.061468e+00 -1.500000e+00
      vertex -1.439104e+01  5.061468e+00  1.500000e+00
      vertex -1.265685e+01  7.656854e+00 -1.500000e+00
    endloop
  endfacet
  facet normal -8.314698e-01  5.555702e-01  0.000000e+00
    outer loop
      vertex -1.265685e+01  7.656854e+00 -1.500000e+00
      vertex -1.439104e+01  5.061468e+00  1.500000e+00
      vertex -1.265685e+01  7.656854e+00  1.500000e+00
    endloop
  endfacet
  facet normal -5.555701e-01  8.314697e-01  0.000000e+00
    outer loop
      vertex -1.265685e+01  7.656854e+00 -1.500000e+00
      vertex -1.265685e+01  7.656854e+00  1.500000e+00
      vertex -1.006147e+01  9.391036e+00 -1.500000e+00
    endloop
  endfacet
  facet normal -5.555701e-01  8.314697e-01  0.000000e+00
    outer loop
      vertex -1.006147e+01  9.391036e+00 -1.500000e+00
      vertex -1.265685e+01  7.656854e+00  1.500000e+00
      vertex -1.006147e+01  9.391036e+00  1.500000e+00
    endloop
  endfacet
  facet normal -1.950904e-01  9.807853e-01  0.000000e+00
    outer loop
      vertex -1.006147e+01  9.391036e+00 -1.500000e+00
      vertex -1.006147e+01  9.391036e+00  1.500000e+00
      vertex -7.000000e+00  1.000000e+01 -1.500000e+00
    endloop
  endfacet
  facet normal -1.950904e-01  9.807853e-01  0.000000e+00
    outer loop
      vertex -7.000000e+00  1.000000e+01 -1.500000e+00
      vertex -1.006147e+01  9.391036e+00  1.500000e+00
      vertex -7.000000e+00  1.000000e+01  1.500000e+00
    endloop
  endfacet
  facet normal  0.000000e+00  1.000000e+00  -0.000000e+00
    outer loop
      vertex -1.600000e+00  1.000000e+01  1.500000e+00
      vertex -1.600000e+00  1.000000e+01 -1.500000e+00
      vertex -7.000000e+00  1.000000e+01  1.500000e+00
    endloop
  endfacet
  facet normal  0.000000e+00  1.000000e+00  0.000000e+00
    outer loop
      vertex -7.000000e+00  1.000000e+01  1.500000e+00
      vertex -1.600000e+00  1.000000e+01 -1.500000e+00
      vertex -7.000000e+00  1.000000e+01 -1.500000e+00
    endloop
  endfacet
  facet normal  1.000000e+00  -0.000000e+00  0.000000e+00
    outer loop
      vertex -1.600000e+00  1.000000e+01  1.500000e+00
      vertex -1.600000e+00  4.950000e+00  1.500000e+00
      vertex -1.600000e+00  1.000000e+01 -1.500000e+00
    endloop
  endfacet
  facet normal  1.000000e+00  0.000000e+00  0.000000e+00
    outer loop
      vertex -1.600000e+00  1.000000e+01 -1.500000e+00
      vertex -1.600000e+00  4.950000e+00  1.500000e+00
      vertex -1.600000e+00  4.950000e+00 -1.500000e+00
    endloop
  endfacet
  facet normal  0.000000e+00  1.000000e+00  -0.000000e+00
    outer loop
      vertex  0.000000e+00  4.950000e+00  1.500000e+00
      vertex  0.000000e+00  4.950000e+00 -1.500000e+00
      vertex -1.600000e+00  4.950000e+00  1.500000e+00
    endloop
  endfacet
  facet normal  0.000000e+00  1.000000e+00  0.000000e+00
    outer loop
      vertex -1.600000e+00  4.950000e+00  1.500000e+00
      vertex  0.000000e+00  4.950000e+00 -1.500000e+00
      vertex -1.600000e+00  4.950000e+00 -1.500000e+00
    endloop
  endfacet
  facet normal  0.000000e+00  1.000000e+00  -0.000000e+00
    outer loop
      vertex  1.600000e+00  4.950000e+00  1.500000e+00
      vertex  1.600000e+00  4.950000e+00 -1.500000e+00
      vertex  0.000000e+00  4.950000e+00  1.500000e+00
    endloop
  endfacet
  facet normal  0.000000e+00  1.000000e+00  0.000000e+00
    outer loop
      vertex  0.000000e+00  4.950000e+00  1.500000e+00
      vertex  1.600000e+00  4.950000e+00 -1.500000e+00
      vertex  0.000000e+00  4.950000e+00 -1.500000e+00
    endloop
  endfacet
  facet normal -1.000000e+00  0.000000e+00  0.000000e+00
    outer loop
      vertex  1.600000e+00  1.000000e+01  1.500000e+00
      vertex  1.600000e+00  1.000000e+01 -1.500000e+00
      vertex  1.600000e+00  4.950000e+00  1.500000e+00
    endloop
  endfacet
  facet normal -1.000000e+00  0.000000e+00  0.000000e+00
    outer loop
      vertex  1.600000e+00  4.950000e+00  1.500000e+00
      vertex  1.600000e+00  1.000000e+01 -1.500000e+00
      vertex  1.600000e+00  4.950000e+00 -1.500000e+00
    endloop
  endfacet
  facet normal  0.000000e+00  1.000000e+00  -0.000000e+00
    outer loop
      vertex  7.000000e+00  1.000000e+01  1.500000e+00
      vertex  7.000000e+00  1.000000e+01 -1.500000e+00
      vertex  1.600000e+00  1.000000e+01  1.500000e+00
    endloop
  endfacet
  facet normal  0.000000e+00  1.000000e+00  0.000000e+00
    outer loop
      vertex  1.600000e+00  1.000000e+01  1.500000e+00
      vertex  7.000000e+00  1.000000e+01 -1.500000e+00
      vertex  1.600000e+00  1.000000e+01 -1.500000e+00
    endloop
  endfacet
  facet normal  1.950904e-01  9.807853e-01  0.000000e+00
    outer loop
      vertex  7.000000e+00  1.000000e+01 -1.500000e+00
      vertex  7.000000e+00  1.000000e+01  1.500000e+00
      vertex  1.006147e+01  9.391036e+00 -1.500000e+00
    endloop
  endfacet
  facet normal  1.950904e-01  9.807853e-01  -0.000000e+00
    outer loop
      vertex  1.006147e+01  9.391036e+00 -1.500000e+00
      vertex  7.000000e+00  1.000000e+01  1.500000e+00
      vertex  1.006147e+01  9.391036e+00  1.500000e+00
    endloop
  endfacet
  facet normal  5.555701e-01  8.314697e-01  0.000000e+00
    outer loop
      vertex  1.006147e+01  9.391036e+00 -1.500000e+00
      vertex  1.006147e+01  9.391036e+00  1.500000e+00
      vertex  1.265685e+01  7.656854e+00 -1.500000e+00
    endloop
  endfacet
  facet normal  5.555701e-01  8.314697e-01  -0.000000e+00
    outer loop
      vertex  1.265685e+01  7.656854e+00 -1.500000e+00
      vertex  1.006147e+01  9.391036e+00  1.500000e+00
      vertex  1.265685e+01  7.656854e+00  1.500000e+00
    endloop
  endfacet
  facet normal  8.314698e-01  5.555702e-01  0.000000e+00
    outer loop
      vertex  1.265685e+01  7.656854e+00 -1.500000e+00
      vertex  1.265685e+01  7.656854e+00  1.500000e+00
      vertex  1.439104e+01  5.061468e+00 -1.500000e+00
    endloop
  endfacet
  facet normal  8.314698e-01  5.555702e-01  -0.000000e+00
    outer loop
      vertex  1.439104e+01  5.061468e+00 -1.500000e+00
      vertex  1.265685e+01  7.656854e+00  1.500000e+00
      vertex  1.439104e+01  5.061468e+00  1.500000e+00
    endloop
  endfacet
  facet normal  9.807852e-01  1.950904e-01  0.000000e+00
    outer loop
      vertex  1.439104e+01  5.061468e+00 -1.500000e+00
      vertex  1.439104e+01  5.061468e+00  1.500000e+00
      vertex  1.500000e+01  2.000000e+00 -1.500000e+00
    endloop
  endfacet
  facet normal  9.807852e-01  1.950904e-01  -0.000000e+00
    outer loop
      vertex  1.500000e+01  2.000000e+00 -1.500000e+00
      vertex  1.439104e+01  5.061468e+00  1.500000e+00
      vertex  1.500000e+01  2.000000e+00  1.500000e+00
    endloop
  endfacet
  facet normal  1.000000e+00  0.000000e+00  0.000000e+00
    outer loop
      vertex  1.500000e+01  0.000000e+00 -1.500000e+00
      vertex  1.500000e+01  2.000000e+00 -1.500000e+00
      vertex  1.500000e+01  0.000000e+00  1.500000e+00
    endloop
  endfacet
  facet normal  1.000000e+00  -0.000000e+00  0.000000e+00
    outer loop
      vertex  1.500000e+01  0.000000e+00  1.500000e+00
      vertex  1.500000e+01  2.000000e+00 -1.500000e+00
      vertex  1.500000e+01  2.000000e+00  1.500000e+00
    endloop
  endfacet
  facet normal  0.000000e+00 -1.000000e+00  0.000000e+00
    outer loop
      vertex -1.500000e+01  0.000000e+00  1.500000e+00
      vertex -1.500000e+01  0.000000e+00 -1.500000e+00
      vertex  1.500000e+01  0.000000e+00  1.500000e+00
    endloop
  endfacet
  facet normal  0.000000e+00 -1.000000e+00  -0.000000e+00
    outer loop
      vertex  1.500000e+01  0.000000e+00  1.500000e+00
      vertex -1.500000e+01  0.000000e+00 -1.500000e+00
      vertex  1.500000e+01  0.000000e+00 -1.500000e+00
    endloop
  endfacet
endsolid CATIA STL
