solid CATIA STL
  facet normal  0.000000e+00  1.000000e+00  0.000000e+00
    outer loop
      vertex  4.113979e+01  1.500000e+00 -3.685072e+01
      vertex  1.650000e+00  1.500000e+00  7.500000e-02
      vertex  4.621365e+01  1.500000e+00 -3.695867e+01
    endloop
  endfacet
  facet normal  0.000000e+00  1.000000e+00  -0.000000e+00
    outer loop
      vertex  4.800000e+01  1.500000e+00  4.700000e+01
      vertex  4.621365e+01  1.500000e+00 -3.695867e+01
      vertex  1.650000e+00  1.500000e+00  7.500000e-02
    endloop
  endfacet
  facet normal  0.000000e+00  1.000000e+00  -0.000000e+00
    outer loop
      vertex  4.800000e+01  1.500000e+00  4.700000e+01
      vertex  1.650000e+00  1.500000e+00  7.500000e-02
      vertex -1.650000e+00  1.500000e+00  7.500000e-02
    endloop
  endfacet
  facet normal  0.000000e+00  1.000000e+00  -0.000000e+00
    outer loop
      vertex  4.800000e+01  1.500000e+00  4.700000e+01
      vertex -1.650000e+00  1.500000e+00  7.500000e-02
      vertex -4.800000e+01  1.500000e+00  4.700000e+01
    endloop
  endfacet
  facet normal  0.000000e+00  1.000000e+00  0.000000e+00
    outer loop
      vertex  1.650000e+00  1.500000e+00 -4.700000e+01
      vertex  1.650000e+00  1.500000e+00  7.500000e-02
      vertex  4.113979e+01  1.500000e+00 -3.685072e+01
    endloop
  endfacet
  facet normal  0.000000e+00  1.000000e+00  0.000000e+00
    outer loop
      vertex  1.650000e+00  1.500000e+00 -4.700000e+01
      vertex  4.113979e+01  1.500000e+00 -3.685072e+01
      vertex  4.106960e+01  1.500000e+00 -4.014997e+01
    endloop
  endfacet
  facet normal  0.000000e+00  9.999999e-01  0.000000e+00
    outer loop
      vertex  1.650000e+00  1.500000e+00 -4.700000e+01
      vertex  4.106960e+01  1.500000e+00 -4.014997e+01
      vertex  4.614345e+01  1.500000e+00 -4.025792e+01
    endloop
  endfacet
  facet normal  0.000000e+00  9.999999e-01  0.000000e+00
    outer loop
      vertex  1.650000e+00  1.500000e+00 -4.700000e+01
      vertex  4.614345e+01  1.500000e+00 -4.025792e+01
      vertex  4.609027e+01  1.500000e+00 -4.275736e+01
    endloop
  endfacet
  facet normal  0.000000e+00  1.000000e+00  0.000000e+00
    outer loop
      vertex  1.650000e+00  1.500000e+00 -4.700000e+01
      vertex  4.609027e+01  1.500000e+00 -4.275736e+01
      vertex  4.184763e+01  1.500000e+00 -4.700000e+01
    endloop
  endfacet
  facet normal  0.000000e+00  1.000000e+00  -0.000000e+00
    outer loop
      vertex -1.650000e+00  1.500000e+00 -4.700000e+01
      vertex -4.184763e+01  1.500000e+00 -4.700000e+01
      vertex -4.609027e+01  1.500000e+00 -4.275736e+01
    endloop
  endfacet
  facet normal  -0.000000e+00  1.000000e+00  -0.000000e+00
    outer loop
      vertex -1.650000e+00  1.500000e+00 -4.700000e+01
      vertex -4.609027e+01  1.500000e+00 -4.275736e+01
      vertex -4.614345e+01  1.500000e+00 -4.025792e+01
    endloop
  endfacet
  facet normal  -0.000000e+00  9.999999e-01  0.000000e+00
    outer loop
      vertex -1.650000e+00  1.500000e+00 -4.700000e+01
      vertex -4.614345e+01  1.500000e+00 -4.025792e+01
      vertex -4.106960e+01  1.500000e+00 -4.014997e+01
    endloop
  endfacet
  facet normal  -0.000000e+00  1.000000e+00  -0.000000e+00
    outer loop
      vertex -1.650000e+00  1.500000e+00 -4.700000e+01
      vertex -4.106960e+01  1.500000e+00 -4.014997e+01
      vertex -4.113979e+01  1.500000e+00 -3.685072e+01
    endloop
  endfacet
  facet normal  -0.000000e+00  1.000000e+00  0.000000e+00
    outer loop
      vertex -1.650000e+00  1.500000e+00 -4.700000e+01
      vertex -4.113979e+01  1.500000e+00 -3.685072e+01
      vertex -1.650000e+00  1.500000e+00  7.500000e-02
    endloop
  endfacet
  facet normal  0.000000e+00  9.999999e-01  -0.000000e+00
    outer loop
      vertex -1.650000e+00  1.500000e+00  7.500000e-02
      vertex -4.113979e+01  1.500000e+00 -3.685072e+01
      vertex -4.800000e+01  1.500000e+00  4.700000e+01
    endloop
  endfacet
  facet normal  0.000000e+00  1.000000e+00  0.000000e+00
    outer loop
      vertex -4.800000e+01  1.500000e+00  4.700000e+01
      vertex -4.113979e+01  1.500000e+00 -3.685072e+01
      vertex -4.621365e+01  1.500000e+00 -3.695867e+01
    endloop
  endfacet
  facet normal  0.000000e+00 -1.000000e+00  0.000000e+00
    outer loop
      vertex  4.621365e+01 -1.500000e+00 -3.695867e+01
      vertex  1.650000e+00 -1.500000e+00  7.500000e-02
      vertex  4.113979e+01 -1.500000e+00 -3.685072e+01
    endloop
  endfacet
  facet normal  0.000000e+00 -1.000000e+00  0.000000e+00
    outer loop
      vertex  4.800000e+01 -1.500000e+00  4.700000e+01
      vertex -4.800000e+01 -1.500000e+00  4.700000e+01
      vertex -1.650000e+00 -1.500000e+00  7.500000e-02
    endloop
  endfacet
  facet normal  0.000000e+00 -1.000000e+00  0.000000e+00
    outer loop
      vertex  4.800000e+01 -1.500000e+00  4.700000e+01
      vertex -1.650000e+00 -1.500000e+00  7.500000e-02
      vertex  1.650000e+00 -1.500000e+00  7.500000e-02
    endloop
  endfacet
  facet normal  0.000000e+00 -1.000000e+00  0.000000e+00
    outer loop
      vertex  4.800000e+01 -1.500000e+00  4.700000e+01
      vertex  1.650000e+00 -1.500000e+00  7.500000e-02
      vertex  4.621365e+01 -1.500000e+00 -3.695867e+01
    endloop
  endfacet
  facet normal  0.000000e+00 -1.000000e+00  0.000000e+00
    outer loop
      vertex  1.650000e+00 -1.500000e+00 -4.700000e+01
      vertex  4.184763e+01 -1.500000e+00 -4.700000e+01
      vertex  4.609027e+01 -1.500000e+00 -4.275736e+01
    endloop
  endfacet
  facet normal  -0.000000e+00 -1.000000e+00  0.000000e+00
    outer loop
      vertex  1.650000e+00 -1.500000e+00 -4.700000e+01
      vertex  4.609027e+01 -1.500000e+00 -4.275736e+01
      vertex  4.614345e+01 -1.500000e+00 -4.025792e+01
    endloop
  endfacet
  facet normal  -0.000000e+00 -9.999999e-01  0.000000e+00
    outer loop
      vertex  1.650000e+00 -1.500000e+00 -4.700000e+01
      vertex  4.614345e+01 -1.500000e+00 -4.025792e+01
      vertex  4.106960e+01 -1.500000e+00 -4.014997e+01
    endloop
  endfacet
  facet normal  -0.000000e+00 -1.000000e+00  0.000000e+00
    outer loop
      vertex  1.650000e+00 -1.500000e+00 -4.700000e+01
      vertex  4.106960e+01 -1.500000e+00 -4.014997e+01
      vertex  4.113979e+01 -1.500000e+00 -3.685072e+01
    endloop
  endfacet
  facet normal  -0.000000e+00 -1.000000e+00  0.000000e+00
    outer loop
      vertex  1.650000e+00 -1.500000e+00 -4.700000e+01
      vertex  4.113979e+01 -1.500000e+00 -3.685072e+01
      vertex  1.650000e+00 -1.500000e+00  7.500000e-02
    endloop
  endfacet
  facet normal  0.000000e+00 -1.000000e+00  -0.000000e+00
    outer loop
      vertex -1.650000e+00 -1.500000e+00 -4.700000e+01
      vertex -1.650000e+00 -1.500000e+00  7.500000e-02
      vertex -4.113979e+01 -1.500000e+00 -3.685072e+01
    endloop
  endfacet
  facet normal  0.000000e+00 -1.000000e+00  0.000000e+00
    outer loop
      vertex -1.650000e+00 -1.500000e+00 -4.700000e+01
      vertex -4.113979e+01 -1.500000e+00 -3.685072e+01
      vertex -4.106960e+01 -1.500000e+00 -4.014997e+01
    endloop
  endfacet
  facet normal  0.000000e+00 -9.999999e-01  -0.000000e+00
    outer loop
      vertex -1.650000e+00 -1.500000e+00 -4.700000e+01
      vertex -4.106960e+01 -1.500000e+00 -4.014997e+01
      vertex -4.614345e+01 -1.500000e+00 -4.025792e+01
    endloop
  endfacet
  facet normal  0.000000e+00 -9.999999e-01  0.000000e+00
    outer loop
      vertex -1.650000e+00 -1.500000e+00 -4.700000e+01
      vertex -4.614345e+01 -1.500000e+00 -4.025792e+01
      vertex -4.609027e+01 -1.500000e+00 -4.275736e+01
    endloop
  endfacet
  facet normal  0.000000e+00 -1.000000e+00  0.000000e+00
    outer loop
      vertex -1.650000e+00 -1.500000e+00 -4.700000e+01
      vertex -4.609027e+01 -1.500000e+00 -4.275736e+01
      vertex -4.184763e+01 -1.500000e+00 -4.700000e+01
    endloop
  endfacet
  facet normal  0.000000e+00 -1.000000e+00  0.000000e+00
    outer loop
      vertex -1.650000e+00 -1.500000e+00  7.500000e-02
      vertex -4.800000e+01 -1.500000e+00  4.700000e+01
      vertex -4.113979e+01 -1.500000e+00 -3.685072e+01
    endloop
  endfacet
  facet normal  -0.000000e+00 -1.000000e+00  0.000000e+00
    outer loop
      vertex -4.113979e+01 -1.500000e+00 -3.685072e+01
      vertex -4.800000e+01 -1.500000e+00  4.700000e+01
      vertex -4.621365e+01 -1.500000e+00 -3.695867e+01
    endloop
  endfacet
  facet normal -9.997738e-01  0.000000e+00 -2.127227e-02
    outer loop
      vertex -4.614345e+01  1.500000e+00 -4.025792e+01
      vertex -4.609027e+01  1.500000e+00 -4.275736e+01
      vertex -4.614345e+01 -1.500000e+00 -4.025792e+01
    endloop
  endfacet
  facet normal -9.997738e-01  0.000000e+00 -2.127227e-02
    outer loop
      vertex -4.614345e+01 -1.500000e+00 -4.025792e+01
      vertex -4.609027e+01  1.500000e+00 -4.275736e+01
      vertex -4.609027e+01 -1.500000e+00 -4.275736e+01
    endloop
  endfacet
  facet normal -9.997737e-01  0.000000e+00 -2.127177e-02
    outer loop
      vertex -4.800000e+01  1.500000e+00  4.700000e+01
      vertex -4.621365e+01  1.500000e+00 -3.695867e+01
      vertex -4.800000e+01 -1.500000e+00  4.700000e+01
    endloop
  endfacet
  facet normal -9.997737e-01  0.000000e+00 -2.127177e-02
    outer loop
      vertex -4.800000e+01 -1.500000e+00  4.700000e+01
      vertex -4.621365e+01  1.500000e+00 -3.695867e+01
      vertex -4.621365e+01 -1.500000e+00 -3.695867e+01
    endloop
  endfacet
  facet normal -2.127135e-02  0.000000e+00  9.997737e-01
    outer loop
      vertex -4.106960e+01 -1.500000e+00 -4.014997e+01
      vertex -4.106960e+01  1.500000e+00 -4.014997e+01
      vertex -4.614345e+01 -1.500000e+00 -4.025792e+01
    endloop
  endfacet
  facet normal -2.127135e-02  0.000000e+00  9.997737e-01
    outer loop
      vertex -4.614345e+01 -1.500000e+00 -4.025792e+01
      vertex -4.106960e+01  1.500000e+00 -4.014997e+01
      vertex -4.614345e+01  1.500000e+00 -4.025792e+01
    endloop
  endfacet
  facet normal -9.997737e-01  0.000000e+00 -2.127213e-02
    outer loop
      vertex -4.113979e+01  1.500000e+00 -3.685072e+01
      vertex -4.106960e+01  1.500000e+00 -4.014997e+01
      vertex -4.113979e+01 -1.500000e+00 -3.685072e+01
    endloop
  endfacet
  facet normal -9.997737e-01  0.000000e+00 -2.127213e-02
    outer loop
      vertex -4.113979e+01 -1.500000e+00 -3.685072e+01
      vertex -4.106960e+01  1.500000e+00 -4.014997e+01
      vertex -4.106960e+01 -1.500000e+00 -4.014997e+01
    endloop
  endfacet
  facet normal  2.127210e-02  0.000000e+00 -9.997737e-01
    outer loop
      vertex -4.621365e+01 -1.500000e+00 -3.695867e+01
      vertex -4.621365e+01  1.500000e+00 -3.695867e+01
      vertex -4.113979e+01 -1.500000e+00 -3.685072e+01
    endloop
  endfacet
  facet normal  2.127210e-02  0.000000e+00 -9.997737e-01
    outer loop
      vertex -4.113979e+01 -1.500000e+00 -3.685072e+01
      vertex -4.621365e+01  1.500000e+00 -3.695867e+01
      vertex -4.113979e+01  1.500000e+00 -3.685072e+01
    endloop
  endfacet
  facet normal  2.127135e-02  0.000000e+00  9.997737e-01
    outer loop
      vertex  4.106960e+01 -1.500000e+00 -4.014997e+01
      vertex  4.614345e+01 -1.500000e+00 -4.025792e+01
      vertex  4.106960e+01  1.500000e+00 -4.014997e+01
    endloop
  endfacet
  facet normal  2.127135e-02  0.000000e+00  9.997737e-01
    outer loop
      vertex  4.106960e+01  1.500000e+00 -4.014997e+01
      vertex  4.614345e+01 -1.500000e+00 -4.025792e+01
      vertex  4.614345e+01  1.500000e+00 -4.025792e+01
    endloop
  endfacet
  facet normal -2.127210e-02  0.000000e+00 -9.997737e-01
    outer loop
      vertex  4.621365e+01 -1.500000e+00 -3.695867e+01
      vertex  4.113979e+01 -1.500000e+00 -3.685072e+01
      vertex  4.621365e+01  1.500000e+00 -3.695867e+01
    endloop
  endfacet
  facet normal -2.127210e-02  0.000000e+00 -9.997737e-01
    outer loop
      vertex  4.621365e+01  1.500000e+00 -3.695867e+01
      vertex  4.113979e+01 -1.500000e+00 -3.685072e+01
      vertex  4.113979e+01  1.500000e+00 -3.685072e+01
    endloop
  endfacet
  facet normal  9.997737e-01  0.000000e+00 -2.127177e-02
    outer loop
      vertex  4.621365e+01  1.500000e+00 -3.695867e+01
      vertex  4.800000e+01  1.500000e+00  4.700000e+01
      vertex  4.621365e+01 -1.500000e+00 -3.695867e+01
    endloop
  endfacet
  facet normal  9.997737e-01  0.000000e+00 -2.127177e-02
    outer loop
      vertex  4.621365e+01 -1.500000e+00 -3.695867e+01
      vertex  4.800000e+01  1.500000e+00  4.700000e+01
      vertex  4.800000e+01 -1.500000e+00  4.700000e+01
    endloop
  endfacet
  facet normal  9.997738e-01  0.000000e+00 -2.127227e-02
    outer loop
      vertex  4.609027e+01  1.500000e+00 -4.275736e+01
      vertex  4.614345e+01  1.500000e+00 -4.025792e+01
      vertex  4.609027e+01 -1.500000e+00 -4.275736e+01
    endloop
  endfacet
  facet normal  9.997738e-01  0.000000e+00 -2.127227e-02
    outer loop
      vertex  4.609027e+01 -1.500000e+00 -4.275736e+01
      vertex  4.614345e+01  1.500000e+00 -4.025792e+01
      vertex  4.614345e+01 -1.500000e+00 -4.025792e+01
    endloop
  endfacet
  facet normal  9.997737e-01  0.000000e+00 -2.127213e-02
    outer loop
      vertex  4.113979e+01  1.500000e+00 -3.685072e+01
      vertex  4.113979e+01 -1.500000e+00 -3.685072e+01
      vertex  4.106960e+01  1.500000e+00 -4.014997e+01
    endloop
  endfacet
  facet normal  9.997737e-01  0.000000e+00 -2.127213e-02
    outer loop
      vertex  4.106960e+01  1.500000e+00 -4.014997e+01
      vertex  4.113979e+01 -1.500000e+00 -3.685072e+01
      vertex  4.106960e+01 -1.500000e+00 -4.014997e+01
    endloop
  endfacet
  facet normal  -0.000000e+00  0.000000e+00  1.000000e+00
    outer loop
      vertex  4.800000e+01  1.500000e+00  4.700000e+01
      vertex -4.800000e+01  1.500000e+00  4.700000e+01
      vertex  4.800000e+01 -1.500000e+00  4.700000e+01
    endloop
  endfacet
  facet normal  0.000000e+00  0.000000e+00  1.000000e+00
    outer loop
      vertex  4.800000e+01 -1.500000e+00  4.700000e+01
      vertex -4.800000e+01  1.500000e+00  4.700000e+01
      vertex -4.800000e+01 -1.500000e+00  4.700000e+01
    endloop
  endfacet
  facet normal -7.071071e-01  0.000000e+00 -7.071065e-01
    outer loop
      vertex -4.184763e+01  1.500000e+00 -4.700000e+01
      vertex -4.184763e+01 -1.500000e+00 -4.700000e+01
      vertex -4.609027e+01  1.500000e+00 -4.275736e+01
    endloop
  endfacet
  facet normal -7.071071e-01  -0.000000e+00 -7.071065e-01
    outer loop
      vertex -4.609027e+01  1.500000e+00 -4.275736e+01
      vertex -4.184763e+01 -1.500000e+00 -4.700000e+01
      vertex -4.609027e+01 -1.500000e+00 -4.275736e+01
    endloop
  endfacet
  facet normal  -0.000000e+00  0.000000e+00 -1.000000e+00
    outer loop
      vertex -4.184763e+01  1.500000e+00 -4.700000e+01
      vertex -1.650000e+00  1.500000e+00 -4.700000e+01
      vertex -4.184763e+01 -1.500000e+00 -4.700000e+01
    endloop
  endfacet
  facet normal  0.000000e+00  0.000000e+00 -1.000000e+00
    outer loop
      vertex -4.184763e+01 -1.500000e+00 -4.700000e+01
      vertex -1.650000e+00  1.500000e+00 -4.700000e+01
      vertex -1.650000e+00 -1.500000e+00 -4.700000e+01
    endloop
  endfacet
  facet normal  1.000000e+00  -0.000000e+00  0.000000e+00
    outer loop
      vertex -1.650000e+00  1.500000e+00  7.500000e-02
      vertex -1.650000e+00 -1.500000e+00  7.500000e-02
      vertex -1.650000e+00  1.500000e+00 -4.700000e+01
    endloop
  endfacet
  facet normal  1.000000e+00  0.000000e+00  0.000000e+00
    outer loop
      vertex -1.650000e+00  1.500000e+00 -4.700000e+01
      vertex -1.650000e+00 -1.500000e+00  7.500000e-02
      vertex -1.650000e+00 -1.500000e+00 -4.700000e+01
    endloop
  endfacet
  facet normal  0.000000e+00  0.000000e+00 -1.000000e+00
    outer loop
      vertex  1.650000e+00  1.500000e+00  7.500000e-02
      vertex  1.650000e+00 -1.500000e+00  7.500000e-02
      vertex -1.650000e+00  1.500000e+00  7.500000e-02
    endloop
  endfacet
  facet normal  0.000000e+00  0.000000e+00 -1.000000e+00
    outer loop
      vertex -1.650000e+00  1.500000e+00  7.500000e-02
      vertex  1.650000e+00 -1.500000e+00  7.500000e-02
      vertex -1.650000e+00 -1.500000e+00  7.500000e-02
    endloop
  endfacet
  facet normal -1.000000e+00  0.000000e+00  0.000000e+00
    outer loop
      vertex  1.650000e+00  1.500000e+00 -4.700000e+01
      vertex  1.650000e+00 -1.500000e+00 -4.700000e+01
      vertex  1.650000e+00  1.500000e+00  7.500000e-02
    endloop
  endfacet
  facet normal -1.000000e+00  -0.000000e+00  0.000000e+00
    outer loop
      vertex  1.650000e+00  1.500000e+00  7.500000e-02
      vertex  1.650000e+00 -1.500000e+00 -4.700000e+01
      vertex  1.650000e+00 -1.500000e+00  7.500000e-02
    endloop
  endfacet
  facet normal  -0.000000e+00  0.000000e+00 -1.000000e+00
    outer loop
      vertex  1.650000e+00  1.500000e+00 -4.700000e+01
      vertex  4.184763e+01  1.500000e+00 -4.700000e+01
      vertex  1.650000e+00 -1.500000e+00 -4.700000e+01
    endloop
  endfacet
  facet normal  0.000000e+00  0.000000e+00 -1.000000e+00
    outer loop
      vertex  1.650000e+00 -1.500000e+00 -4.700000e+01
      vertex  4.184763e+01  1.500000e+00 -4.700000e+01
      vertex  4.184763e+01 -1.500000e+00 -4.700000e+01
    endloop
  endfacet
  facet normal  7.071071e-01  0.000000e+00 -7.071065e-01
    outer loop
      vertex  4.184763e+01  1.500000e+00 -4.700000e+01
      vertex  4.609027e+01  1.500000e+00 -4.275736e+01
      vertex  4.184763e+01 -1.500000e+00 -4.700000e+01
    endloop
  endfacet
  facet normal  7.071071e-01  0.000000e+00 -7.071065e-01
    outer loop
      vertex  4.184763e+01 -1.500000e+00 -4.700000e+01
      vertex  4.609027e+01  1.500000e+00 -4.275736e+01
      vertex  4.609027e+01 -1.500000e+00 -4.275736e+01
    endloop
  endfacet
endsolid CATIA STL
