solid CATIA STL
  facet normal  0.000000e+00  1.000000e+00  0.000000e+00
    outer loop
      vertex  3.734763e+01  2.000000e+00 -4.700000e+01
      vertex -3.734763e+01  2.000000e+00 -4.700000e+01
      vertex  4.159027e+01  2.000000e+00 -4.275736e+01
    endloop
  endfacet
  facet normal  0.000000e+00  1.000000e+00  0.000000e+00
    outer loop
      vertex  4.159027e+01  2.000000e+00 -4.275736e+01
      vertex -3.734763e+01  2.000000e+00 -4.700000e+01
      vertex -4.159027e+01  2.000000e+00 -4.275736e+01
    endloop
  endfacet
  facet normal  0.000000e+00  9.999999e-01  0.000000e+00
    outer loop
      vertex  4.159027e+01  2.000000e+00 -4.275736e+01
      vertex -4.159027e+01  2.000000e+00 -4.275736e+01
      vertex  4.164345e+01  2.000000e+00 -4.025792e+01
    endloop
  endfacet
  facet normal  0.000000e+00  1.000000e+00  0.000000e+00
    outer loop
      vertex  4.164345e+01  2.000000e+00 -4.025792e+01
      vertex -4.159027e+01  2.000000e+00 -4.275736e+01
      vertex -4.164345e+01  2.000000e+00 -4.025792e+01
    endloop
  endfacet
  facet normal  0.000000e+00  1.000000e+00  0.000000e+00
    outer loop
      vertex  4.164345e+01  2.000000e+00 -4.025792e+01
      vertex -4.164345e+01  2.000000e+00 -4.025792e+01
      vertex  3.656960e+01  2.000000e+00 -4.014997e+01
    endloop
  endfacet
  facet normal  0.000000e+00  9.999999e-01  0.000000e+00
    outer loop
      vertex  3.656960e+01  2.000000e+00 -4.014997e+01
      vertex -4.164345e+01  2.000000e+00 -4.025792e+01
      vertex -3.656960e+01  2.000000e+00 -4.014997e+01
    endloop
  endfacet
  facet normal  0.000000e+00  1.000000e+00  0.000000e+00
    outer loop
      vertex  3.656960e+01  2.000000e+00 -4.014997e+01
      vertex -3.656960e+01  2.000000e+00 -4.014997e+01
      vertex  3.666106e+01  2.000000e+00 -3.585094e+01
    endloop
  endfacet
  facet normal  0.000000e+00  1.000000e+00  0.000000e+00
    outer loop
      vertex  3.666106e+01  2.000000e+00 -3.585094e+01
      vertex -3.656960e+01  2.000000e+00 -4.014997e+01
      vertex -3.666106e+01  2.000000e+00 -3.585094e+01
    endloop
  endfacet
  facet normal  0.000000e+00  9.999999e-01  0.000000e+00
    outer loop
      vertex  3.666106e+01  2.000000e+00 -3.585094e+01
      vertex -3.666106e+01  2.000000e+00 -3.585094e+01
      vertex  2.150000e+00  2.000000e+00 -7.500000e-02
    endloop
  endfacet
  facet normal  0.000000e+00  1.000000e+00  0.000000e+00
    outer loop
      vertex -4.350000e+01  2.000000e+00  4.700000e+01
      vertex -2.150000e+00  2.000000e+00  4.700000e+01
      vertex -4.173492e+01  2.000000e+00 -3.595890e+01
    endloop
  endfacet
  facet normal  0.000000e+00  1.000000e+00  0.000000e+00
    outer loop
      vertex -4.173492e+01  2.000000e+00 -3.595890e+01
      vertex -2.150000e+00  2.000000e+00  4.700000e+01
      vertex -2.150000e+00  2.000000e+00 -7.500000e-02
    endloop
  endfacet
  facet normal  0.000000e+00  1.000000e+00  0.000000e+00
    outer loop
      vertex -4.173492e+01  2.000000e+00 -3.595890e+01
      vertex -2.150000e+00  2.000000e+00 -7.500000e-02
      vertex -3.666106e+01  2.000000e+00 -3.585094e+01
    endloop
  endfacet
  facet normal  0.000000e+00  1.000000e+00  0.000000e+00
    outer loop
      vertex -3.666106e+01  2.000000e+00 -3.585094e+01
      vertex -2.150000e+00  2.000000e+00 -7.500000e-02
      vertex  2.150000e+00  2.000000e+00 -7.500000e-02
    endloop
  endfacet
  facet normal  0.000000e+00  9.999999e-01  0.000000e+00
    outer loop
      vertex  2.150000e+00  2.000000e+00 -7.500000e-02
      vertex  2.150000e+00  2.000000e+00  4.700000e+01
      vertex  3.666106e+01  2.000000e+00 -3.585094e+01
    endloop
  endfacet
  facet normal  0.000000e+00  1.000000e+00  -0.000000e+00
    outer loop
      vertex  3.666106e+01  2.000000e+00 -3.585094e+01
      vertex  2.150000e+00  2.000000e+00  4.700000e+01
      vertex  4.350000e+01  2.000000e+00  4.700000e+01
    endloop
  endfacet
  facet normal  0.000000e+00  1.000000e+00  0.000000e+00
    outer loop
      vertex  3.666106e+01  2.000000e+00 -3.585094e+01
      vertex  4.350000e+01  2.000000e+00  4.700000e+01
      vertex  4.173492e+01  2.000000e+00 -3.595890e+01
    endloop
  endfacet
  facet normal  0.000000e+00 -9.999999e-01  0.000000e+00
    outer loop
      vertex  2.150000e+00 -2.000000e+00 -7.500000e-02
      vertex -3.666106e+01 -2.000000e+00 -3.585094e+01
      vertex  3.666106e+01 -2.000000e+00 -3.585094e+01
    endloop
  endfacet
  facet normal  -0.000000e+00 -1.000000e+00  0.000000e+00
    outer loop
      vertex  3.666106e+01 -2.000000e+00 -3.585094e+01
      vertex -3.666106e+01 -2.000000e+00 -3.585094e+01
      vertex -3.656960e+01 -2.000000e+00 -4.014997e+01
    endloop
  endfacet
  facet normal  0.000000e+00 -1.000000e+00  0.000000e+00
    outer loop
      vertex  3.666106e+01 -2.000000e+00 -3.585094e+01
      vertex -3.656960e+01 -2.000000e+00 -4.014997e+01
      vertex  3.656960e+01 -2.000000e+00 -4.014997e+01
    endloop
  endfacet
  facet normal  -0.000000e+00 -9.999999e-01  0.000000e+00
    outer loop
      vertex  3.656960e+01 -2.000000e+00 -4.014997e+01
      vertex -3.656960e+01 -2.000000e+00 -4.014997e+01
      vertex -4.164345e+01 -2.000000e+00 -4.025792e+01
    endloop
  endfacet
  facet normal  0.000000e+00 -1.000000e+00  0.000000e+00
    outer loop
      vertex  3.656960e+01 -2.000000e+00 -4.014997e+01
      vertex -4.164345e+01 -2.000000e+00 -4.025792e+01
      vertex  4.164345e+01 -2.000000e+00 -4.025792e+01
    endloop
  endfacet
  facet normal  -0.000000e+00 -1.000000e+00  0.000000e+00
    outer loop
      vertex  4.164345e+01 -2.000000e+00 -4.025792e+01
      vertex -4.164345e+01 -2.000000e+00 -4.025792e+01
      vertex -4.159027e+01 -2.000000e+00 -4.275736e+01
    endloop
  endfacet
  facet normal  0.000000e+00 -9.999999e-01  0.000000e+00
    outer loop
      vertex  4.164345e+01 -2.000000e+00 -4.025792e+01
      vertex -4.159027e+01 -2.000000e+00 -4.275736e+01
      vertex  4.159027e+01 -2.000000e+00 -4.275736e+01
    endloop
  endfacet
  facet normal  -0.000000e+00 -1.000000e+00  0.000000e+00
    outer loop
      vertex  4.159027e+01 -2.000000e+00 -4.275736e+01
      vertex -4.159027e+01 -2.000000e+00 -4.275736e+01
      vertex -3.734763e+01 -2.000000e+00 -4.700000e+01
    endloop
  endfacet
  facet normal  0.000000e+00 -1.000000e+00  0.000000e+00
    outer loop
      vertex  4.159027e+01 -2.000000e+00 -4.275736e+01
      vertex -3.734763e+01 -2.000000e+00 -4.700000e+01
      vertex  3.734763e+01 -2.000000e+00 -4.700000e+01
    endloop
  endfacet
  facet normal  0.000000e+00 -1.000000e+00  0.000000e+00
    outer loop
      vertex -4.350000e+01 -2.000000e+00  4.700000e+01
      vertex -4.173492e+01 -2.000000e+00 -3.595890e+01
      vertex -2.150000e+00 -2.000000e+00  4.700000e+01
    endloop
  endfacet
  facet normal  0.000000e+00 -1.000000e+00  -0.000000e+00
    outer loop
      vertex -2.150000e+00 -2.000000e+00  4.700000e+01
      vertex -4.173492e+01 -2.000000e+00 -3.595890e+01
      vertex -2.150000e+00 -2.000000e+00 -7.500000e-02
    endloop
  endfacet
  facet normal  -0.000000e+00 -9.999999e-01  0.000000e+00
    outer loop
      vertex -4.173492e+01 -2.000000e+00 -3.595890e+01
      vertex -3.666106e+01 -2.000000e+00 -3.585094e+01
      vertex -2.150000e+00 -2.000000e+00 -7.500000e-02
    endloop
  endfacet
  facet normal  0.000000e+00 -1.000000e+00  -0.000000e+00
    outer loop
      vertex -2.150000e+00 -2.000000e+00 -7.500000e-02
      vertex -3.666106e+01 -2.000000e+00 -3.585094e+01
      vertex  2.150000e+00 -2.000000e+00 -7.500000e-02
    endloop
  endfacet
  facet normal  0.000000e+00 -1.000000e+00  0.000000e+00
    outer loop
      vertex  4.173492e+01 -2.000000e+00 -3.595890e+01
      vertex  4.350000e+01 -2.000000e+00  4.700000e+01
      vertex  3.666106e+01 -2.000000e+00 -3.585094e+01
    endloop
  endfacet
  facet normal  0.000000e+00 -1.000000e+00  0.000000e+00
    outer loop
      vertex  3.666106e+01 -2.000000e+00 -3.585094e+01
      vertex  4.350000e+01 -2.000000e+00  4.700000e+01
      vertex  2.150000e+00 -2.000000e+00  4.700000e+01
    endloop
  endfacet
  facet normal  0.000000e+00 -9.999999e-01  0.000000e+00
    outer loop
      vertex  3.666106e+01 -2.000000e+00 -3.585094e+01
      vertex  2.150000e+00 -2.000000e+00  4.700000e+01
      vertex  2.150000e+00 -2.000000e+00 -7.500000e-02
    endloop
  endfacet
  facet normal -9.997737e-01  0.000000e+00 -2.127227e-02
    outer loop
      vertex -4.164345e+01  2.000000e+00 -4.025792e+01
      vertex -4.159027e+01  2.000000e+00 -4.275736e+01
      vertex -4.164345e+01 -2.000000e+00 -4.025792e+01
    endloop
  endfacet
  facet normal -9.997737e-01  0.000000e+00 -2.127227e-02
    outer loop
      vertex -4.164345e+01 -2.000000e+00 -4.025792e+01
      vertex -4.159027e+01  2.000000e+00 -4.275736e+01
      vertex -4.159027e+01 -2.000000e+00 -4.275736e+01
    endloop
  endfacet
  facet normal -9.997737e-01  0.000000e+00 -2.127179e-02
    outer loop
      vertex -4.350000e+01  2.000000e+00  4.700000e+01
      vertex -4.173492e+01  2.000000e+00 -3.595890e+01
      vertex -4.350000e+01 -2.000000e+00  4.700000e+01
    endloop
  endfacet
  facet normal -9.997737e-01  0.000000e+00 -2.127179e-02
    outer loop
      vertex -4.350000e+01 -2.000000e+00  4.700000e+01
      vertex -4.173492e+01  2.000000e+00 -3.595890e+01
      vertex -4.173492e+01 -2.000000e+00 -3.595890e+01
    endloop
  endfacet
  facet normal -2.127135e-02  0.000000e+00  9.997737e-01
    outer loop
      vertex -3.656960e+01 -2.000000e+00 -4.014997e+01
      vertex -3.656960e+01  2.000000e+00 -4.014997e+01
      vertex -4.164345e+01 -2.000000e+00 -4.025792e+01
    endloop
  endfacet
  facet normal -2.127135e-02  0.000000e+00  9.997737e-01
    outer loop
      vertex -4.164345e+01 -2.000000e+00 -4.025792e+01
      vertex -3.656960e+01  2.000000e+00 -4.014997e+01
      vertex -4.164345e+01  2.000000e+00 -4.025792e+01
    endloop
  endfacet
  facet normal -9.997737e-01  0.000000e+00 -2.127182e-02
    outer loop
      vertex -3.666106e+01  2.000000e+00 -3.585094e+01
      vertex -3.656960e+01  2.000000e+00 -4.014997e+01
      vertex -3.666106e+01 -2.000000e+00 -3.585094e+01
    endloop
  endfacet
  facet normal -9.997737e-01  0.000000e+00 -2.127182e-02
    outer loop
      vertex -3.666106e+01 -2.000000e+00 -3.585094e+01
      vertex -3.656960e+01  2.000000e+00 -4.014997e+01
      vertex -3.656960e+01 -2.000000e+00 -4.014997e+01
    endloop
  endfacet
  facet normal  2.127135e-02  0.000000e+00 -9.997737e-01
    outer loop
      vertex -4.173492e+01 -2.000000e+00 -3.595890e+01
      vertex -4.173492e+01  2.000000e+00 -3.595890e+01
      vertex -3.666106e+01 -2.000000e+00 -3.585094e+01
    endloop
  endfacet
  facet normal  2.127135e-02  0.000000e+00 -9.997737e-01
    outer loop
      vertex -3.666106e+01 -2.000000e+00 -3.585094e+01
      vertex -4.173492e+01  2.000000e+00 -3.595890e+01
      vertex -3.666106e+01  2.000000e+00 -3.585094e+01
    endloop
  endfacet
  facet normal  2.127135e-02  0.000000e+00  9.997737e-01
    outer loop
      vertex  3.656960e+01 -2.000000e+00 -4.014997e+01
      vertex  4.164345e+01 -2.000000e+00 -4.025792e+01
      vertex  3.656960e+01  2.000000e+00 -4.014997e+01
    endloop
  endfacet
  facet normal  2.127135e-02  0.000000e+00  9.997737e-01
    outer loop
      vertex  3.656960e+01  2.000000e+00 -4.014997e+01
      vertex  4.164345e+01 -2.000000e+00 -4.025792e+01
      vertex  4.164345e+01  2.000000e+00 -4.025792e+01
    endloop
  endfacet
  facet normal -2.127135e-02  0.000000e+00 -9.997737e-01
    outer loop
      vertex  4.173492e+01 -2.000000e+00 -3.595890e+01
      vertex  3.666106e+01 -2.000000e+00 -3.585094e+01
      vertex  4.173492e+01  2.000000e+00 -3.595890e+01
    endloop
  endfacet
  facet normal -2.127135e-02  0.000000e+00 -9.997737e-01
    outer loop
      vertex  4.173492e+01  2.000000e+00 -3.595890e+01
      vertex  3.666106e+01 -2.000000e+00 -3.585094e+01
      vertex  3.666106e+01  2.000000e+00 -3.585094e+01
    endloop
  endfacet
  facet normal  9.997737e-01  0.000000e+00 -2.127179e-02
    outer loop
      vertex  4.173492e+01  2.000000e+00 -3.595890e+01
      vertex  4.350000e+01  2.000000e+00  4.700000e+01
      vertex  4.173492e+01 -2.000000e+00 -3.595890e+01
    endloop
  endfacet
  facet normal  9.997737e-01  0.000000e+00 -2.127179e-02
    outer loop
      vertex  4.173492e+01 -2.000000e+00 -3.595890e+01
      vertex  4.350000e+01  2.000000e+00  4.700000e+01
      vertex  4.350000e+01 -2.000000e+00  4.700000e+01
    endloop
  endfacet
  facet normal  9.997737e-01  0.000000e+00 -2.127227e-02
    outer loop
      vertex  4.159027e+01  2.000000e+00 -4.275736e+01
      vertex  4.164345e+01  2.000000e+00 -4.025792e+01
      vertex  4.159027e+01 -2.000000e+00 -4.275736e+01
    endloop
  endfacet
  facet normal  9.997737e-01  0.000000e+00 -2.127227e-02
    outer loop
      vertex  4.159027e+01 -2.000000e+00 -4.275736e+01
      vertex  4.164345e+01  2.000000e+00 -4.025792e+01
      vertex  4.164345e+01 -2.000000e+00 -4.025792e+01
    endloop
  endfacet
  facet normal  9.997737e-01  0.000000e+00 -2.127182e-02
    outer loop
      vertex  3.666106e+01  2.000000e+00 -3.585094e+01
      vertex  3.666106e+01 -2.000000e+00 -3.585094e+01
      vertex  3.656960e+01  2.000000e+00 -4.014997e+01
    endloop
  endfacet
  facet normal  9.997737e-01  0.000000e+00 -2.127182e-02
    outer loop
      vertex  3.656960e+01  2.000000e+00 -4.014997e+01
      vertex  3.666106e+01 -2.000000e+00 -3.585094e+01
      vertex  3.656960e+01 -2.000000e+00 -4.014997e+01
    endloop
  endfacet
  facet normal  -0.000000e+00  0.000000e+00  1.000000e+00
    outer loop
      vertex  4.350000e+01  2.000000e+00  4.700000e+01
      vertex  2.150000e+00  2.000000e+00  4.700000e+01
      vertex  4.350000e+01 -2.000000e+00  4.700000e+01
    endloop
  endfacet
  facet normal  0.000000e+00  0.000000e+00  1.000000e+00
    outer loop
      vertex  4.350000e+01 -2.000000e+00  4.700000e+01
      vertex  2.150000e+00  2.000000e+00  4.700000e+01
      vertex  2.150000e+00 -2.000000e+00  4.700000e+01
    endloop
  endfacet
  facet normal -9.999999e-01  0.000000e+00  0.000000e+00
    outer loop
      vertex  2.150000e+00  2.000000e+00  4.700000e+01
      vertex  2.150000e+00  2.000000e+00 -7.500000e-02
      vertex  2.150000e+00 -2.000000e+00  4.700000e+01
    endloop
  endfacet
  facet normal -9.999999e-01  0.000000e+00  0.000000e+00
    outer loop
      vertex  2.150000e+00 -2.000000e+00  4.700000e+01
      vertex  2.150000e+00  2.000000e+00 -7.500000e-02
      vertex  2.150000e+00 -2.000000e+00 -7.500000e-02
    endloop
  endfacet
  facet normal  -0.000000e+00  0.000000e+00  1.000000e+00
    outer loop
      vertex  2.150000e+00  2.000000e+00 -7.500000e-02
      vertex -2.150000e+00  2.000000e+00 -7.500000e-02
      vertex  2.150000e+00 -2.000000e+00 -7.500000e-02
    endloop
  endfacet
  facet normal  0.000000e+00  0.000000e+00  1.000000e+00
    outer loop
      vertex  2.150000e+00 -2.000000e+00 -7.500000e-02
      vertex -2.150000e+00  2.000000e+00 -7.500000e-02
      vertex -2.150000e+00 -2.000000e+00 -7.500000e-02
    endloop
  endfacet
  facet normal  9.999999e-01  0.000000e+00  0.000000e+00
    outer loop
      vertex -2.150000e+00  2.000000e+00 -7.500000e-02
      vertex -2.150000e+00  2.000000e+00  4.700000e+01
      vertex -2.150000e+00 -2.000000e+00 -7.500000e-02
    endloop
  endfacet
  facet normal  9.999999e-01  0.000000e+00  0.000000e+00
    outer loop
      vertex -2.150000e+00 -2.000000e+00 -7.500000e-02
      vertex -2.150000e+00  2.000000e+00  4.700000e+01
      vertex -2.150000e+00 -2.000000e+00  4.700000e+01
    endloop
  endfacet
  facet normal  -0.000000e+00  0.000000e+00  1.000000e+00
    outer loop
      vertex -2.150000e+00  2.000000e+00  4.700000e+01
      vertex -4.350000e+01  2.000000e+00  4.700000e+01
      vertex -2.150000e+00 -2.000000e+00  4.700000e+01
    endloop
  endfacet
  facet normal  0.000000e+00  0.000000e+00  1.000000e+00
    outer loop
      vertex -2.150000e+00 -2.000000e+00  4.700000e+01
      vertex -4.350000e+01  2.000000e+00  4.700000e+01
      vertex -4.350000e+01 -2.000000e+00  4.700000e+01
    endloop
  endfacet
  facet normal -7.071071e-01  0.000000e+00 -7.071065e-01
    outer loop
      vertex -3.734763e+01  2.000000e+00 -4.700000e+01
      vertex -3.734763e+01 -2.000000e+00 -4.700000e+01
      vertex -4.159027e+01  2.000000e+00 -4.275736e+01
    endloop
  endfacet
  facet normal -7.071071e-01  -0.000000e+00 -7.071065e-01
    outer loop
      vertex -4.159027e+01  2.000000e+00 -4.275736e+01
      vertex -3.734763e+01 -2.000000e+00 -4.700000e+01
      vertex -4.159027e+01 -2.000000e+00 -4.275736e+01
    endloop
  endfacet
  facet normal  -0.000000e+00  0.000000e+00 -1.000000e+00
    outer loop
      vertex -3.734763e+01  2.000000e+00 -4.700000e+01
      vertex  3.734763e+01  2.000000e+00 -4.700000e+01
      vertex -3.734763e+01 -2.000000e+00 -4.700000e+01
    endloop
  endfacet
  facet normal  0.000000e+00  0.000000e+00 -1.000000e+00
    outer loop
      vertex -3.734763e+01 -2.000000e+00 -4.700000e+01
      vertex  3.734763e+01  2.000000e+00 -4.700000e+01
      vertex  3.734763e+01 -2.000000e+00 -4.700000e+01
    endloop
  endfacet
  facet normal  7.071071e-01  0.000000e+00 -7.071065e-01
    outer loop
      vertex  3.734763e+01  2.000000e+00 -4.700000e+01
      vertex  4.159027e+01  2.000000e+00 -4.275736e+01
      vertex  3.734763e+01 -2.000000e+00 -4.700000e+01
    endloop
  endfacet
  facet normal  7.071071e-01  0.000000e+00 -7.071065e-01
    outer loop
      vertex  3.734763e+01 -2.000000e+00 -4.700000e+01
      vertex  4.159027e+01  2.000000e+00 -4.275736e+01
      vertex  4.159027e+01 -2.000000e+00 -4.275736e+01
    endloop
  endfacet
endsolid CATIA STL
