solid CATIA STL
  facet normal  0.000000e+00  1.000000e+00  0.000000e+00
    outer loop
      vertex  1.600000e+00  1.500000e+00 -4.700000e+01
      vertex  1.600000e+00  1.500000e+00  5.000000e-02
      vertex  4.121616e+01  1.500000e+00 -3.692511e+01
    endloop
  endfacet
  facet normal  0.000000e+00  1.000000e+00  0.000000e+00
    outer loop
      vertex  1.600000e+00  1.500000e+00 -4.700000e+01
      vertex  4.121616e+01  1.500000e+00 -3.692511e+01
      vertex  4.113109e+01  1.500000e+00 -4.012398e+01
    endloop
  endfacet
  facet normal  0.000000e+00  1.000000e+00  0.000000e+00
    outer loop
      vertex  1.600000e+00  1.500000e+00 -4.700000e+01
      vertex  4.113109e+01  1.500000e+00 -4.012398e+01
      vertex  4.617930e+01  1.500000e+00 -4.025824e+01
    endloop
  endfacet
  facet normal  0.000000e+00  1.000000e+00  0.000000e+00
    outer loop
      vertex  1.600000e+00  1.500000e+00 -4.700000e+01
      vertex  4.617930e+01  1.500000e+00 -4.025824e+01
      vertex  4.611283e+01  1.500000e+00 -4.275736e+01
    endloop
  endfacet
  facet normal  0.000000e+00  1.000000e+00  0.000000e+00
    outer loop
      vertex  1.600000e+00  1.500000e+00 -4.700000e+01
      vertex  4.611283e+01  1.500000e+00 -4.275736e+01
      vertex  4.187020e+01  1.500000e+00 -4.700000e+01
    endloop
  endfacet
  facet normal  0.000000e+00  1.000000e+00  -0.000000e+00
    outer loop
      vertex -1.600000e+00  1.500000e+00 -4.700000e+01
      vertex -4.187020e+01  1.500000e+00 -4.700000e+01
      vertex -4.611283e+01  1.500000e+00 -4.275736e+01
    endloop
  endfacet
  facet normal  -0.000000e+00  1.000000e+00  -0.000000e+00
    outer loop
      vertex -1.600000e+00  1.500000e+00 -4.700000e+01
      vertex -4.611283e+01  1.500000e+00 -4.275736e+01
      vertex -4.617930e+01  1.500000e+00 -4.025824e+01
    endloop
  endfacet
  facet normal  -0.000000e+00  1.000000e+00  0.000000e+00
    outer loop
      vertex -1.600000e+00  1.500000e+00 -4.700000e+01
      vertex -4.617930e+01  1.500000e+00 -4.025824e+01
      vertex -4.113109e+01  1.500000e+00 -4.012398e+01
    endloop
  endfacet
  facet normal  -0.000000e+00  1.000000e+00  -0.000000e+00
    outer loop
      vertex -1.600000e+00  1.500000e+00 -4.700000e+01
      vertex -4.113109e+01  1.500000e+00 -4.012398e+01
      vertex -4.121616e+01  1.500000e+00 -3.692511e+01
    endloop
  endfacet
  facet normal  -0.000000e+00  1.000000e+00  0.000000e+00
    outer loop
      vertex -1.600000e+00  1.500000e+00 -4.700000e+01
      vertex -4.121616e+01  1.500000e+00 -3.692511e+01
      vertex -1.600000e+00  1.500000e+00  5.000000e-02
    endloop
  endfacet
  facet normal  0.000000e+00  1.000000e+00  0.000000e+00
    outer loop
      vertex -4.850000e+01  1.500000e+00  4.700000e+01
      vertex  4.850000e+01  1.500000e+00  4.700000e+01
      vertex  1.600000e+00  1.500000e+00  5.000000e-02
    endloop
  endfacet
  facet normal  -0.000000e+00  1.000000e+00  0.000000e+00
    outer loop
      vertex  1.600000e+00  1.500000e+00  5.000000e-02
      vertex  4.850000e+01  1.500000e+00  4.700000e+01
      vertex  4.626438e+01  1.500000e+00 -3.705938e+01
    endloop
  endfacet
  facet normal  0.000000e+00  9.999999e-01  0.000000e+00
    outer loop
      vertex  1.600000e+00  1.500000e+00  5.000000e-02
      vertex  4.626438e+01  1.500000e+00 -3.705938e+01
      vertex  4.121616e+01  1.500000e+00 -3.692511e+01
    endloop
  endfacet
  facet normal  0.000000e+00  9.999999e-01  0.000000e+00
    outer loop
      vertex -4.121616e+01  1.500000e+00 -3.692511e+01
      vertex -4.626438e+01  1.500000e+00 -3.705938e+01
      vertex -1.600000e+00  1.500000e+00  5.000000e-02
    endloop
  endfacet
  facet normal  0.000000e+00  1.000000e+00  0.000000e+00
    outer loop
      vertex -1.600000e+00  1.500000e+00  5.000000e-02
      vertex -4.626438e+01  1.500000e+00 -3.705938e+01
      vertex -4.850000e+01  1.500000e+00  4.700000e+01
    endloop
  endfacet
  facet normal  0.000000e+00  1.000000e+00  0.000000e+00
    outer loop
      vertex -1.600000e+00  1.500000e+00  5.000000e-02
      vertex -4.850000e+01  1.500000e+00  4.700000e+01
      vertex  1.600000e+00  1.500000e+00  5.000000e-02
    endloop
  endfacet
  facet normal  0.000000e+00 -1.000000e+00  0.000000e+00
    outer loop
      vertex  1.600000e+00 -1.500000e+00 -4.700000e+01
      vertex  4.187020e+01 -1.500000e+00 -4.700000e+01
      vertex  4.611283e+01 -1.500000e+00 -4.275736e+01
    endloop
  endfacet
  facet normal  -0.000000e+00 -1.000000e+00  0.000000e+00
    outer loop
      vertex  1.600000e+00 -1.500000e+00 -4.700000e+01
      vertex  4.611283e+01 -1.500000e+00 -4.275736e+01
      vertex  4.617930e+01 -1.500000e+00 -4.025824e+01
    endloop
  endfacet
  facet normal  -0.000000e+00 -1.000000e+00  0.000000e+00
    outer loop
      vertex  1.600000e+00 -1.500000e+00 -4.700000e+01
      vertex  4.617930e+01 -1.500000e+00 -4.025824e+01
      vertex  4.113109e+01 -1.500000e+00 -4.012398e+01
    endloop
  endfacet
  facet normal  -0.000000e+00 -1.000000e+00  0.000000e+00
    outer loop
      vertex  1.600000e+00 -1.500000e+00 -4.700000e+01
      vertex  4.113109e+01 -1.500000e+00 -4.012398e+01
      vertex  4.121616e+01 -1.500000e+00 -3.692511e+01
    endloop
  endfacet
  facet normal  -0.000000e+00 -1.000000e+00  0.000000e+00
    outer loop
      vertex  1.600000e+00 -1.500000e+00 -4.700000e+01
      vertex  4.121616e+01 -1.500000e+00 -3.692511e+01
      vertex  1.600000e+00 -1.500000e+00  5.000000e-02
    endloop
  endfacet
  facet normal  0.000000e+00 -1.000000e+00  -0.000000e+00
    outer loop
      vertex -1.600000e+00 -1.500000e+00 -4.700000e+01
      vertex -1.600000e+00 -1.500000e+00  5.000000e-02
      vertex -4.121616e+01 -1.500000e+00 -3.692511e+01
    endloop
  endfacet
  facet normal  0.000000e+00 -1.000000e+00  0.000000e+00
    outer loop
      vertex -1.600000e+00 -1.500000e+00 -4.700000e+01
      vertex -4.121616e+01 -1.500000e+00 -3.692511e+01
      vertex -4.113109e+01 -1.500000e+00 -4.012398e+01
    endloop
  endfacet
  facet normal  0.000000e+00 -1.000000e+00  -0.000000e+00
    outer loop
      vertex -1.600000e+00 -1.500000e+00 -4.700000e+01
      vertex -4.113109e+01 -1.500000e+00 -4.012398e+01
      vertex -4.617930e+01 -1.500000e+00 -4.025824e+01
    endloop
  endfacet
  facet normal  0.000000e+00 -1.000000e+00  0.000000e+00
    outer loop
      vertex -1.600000e+00 -1.500000e+00 -4.700000e+01
      vertex -4.617930e+01 -1.500000e+00 -4.025824e+01
      vertex -4.611283e+01 -1.500000e+00 -4.275736e+01
    endloop
  endfacet
  facet normal  0.000000e+00 -1.000000e+00  0.000000e+00
    outer loop
      vertex -1.600000e+00 -1.500000e+00 -4.700000e+01
      vertex -4.611283e+01 -1.500000e+00 -4.275736e+01
      vertex -4.187020e+01 -1.500000e+00 -4.700000e+01
    endloop
  endfacet
  facet normal  0.000000e+00 -9.999999e-01  0.000000e+00
    outer loop
      vertex  4.121616e+01 -1.500000e+00 -3.692511e+01
      vertex  4.626438e+01 -1.500000e+00 -3.705938e+01
      vertex  1.600000e+00 -1.500000e+00  5.000000e-02
    endloop
  endfacet
  facet normal  0.000000e+00 -1.000000e+00  0.000000e+00
    outer loop
      vertex  1.600000e+00 -1.500000e+00  5.000000e-02
      vertex  4.626438e+01 -1.500000e+00 -3.705938e+01
      vertex  4.850000e+01 -1.500000e+00  4.700000e+01
    endloop
  endfacet
  facet normal  -0.000000e+00 -1.000000e+00  0.000000e+00
    outer loop
      vertex  1.600000e+00 -1.500000e+00  5.000000e-02
      vertex  4.850000e+01 -1.500000e+00  4.700000e+01
      vertex -4.850000e+01 -1.500000e+00  4.700000e+01
    endloop
  endfacet
  facet normal  0.000000e+00 -1.000000e+00  0.000000e+00
    outer loop
      vertex  1.600000e+00 -1.500000e+00  5.000000e-02
      vertex -4.850000e+01 -1.500000e+00  4.700000e+01
      vertex -1.600000e+00 -1.500000e+00  5.000000e-02
    endloop
  endfacet
  facet normal  -0.000000e+00 -1.000000e+00  0.000000e+00
    outer loop
      vertex -1.600000e+00 -1.500000e+00  5.000000e-02
      vertex -4.850000e+01 -1.500000e+00  4.700000e+01
      vertex -4.626438e+01 -1.500000e+00 -3.705938e+01
    endloop
  endfacet
  facet normal  0.000000e+00 -9.999999e-01  0.000000e+00
    outer loop
      vertex -1.600000e+00 -1.500000e+00  5.000000e-02
      vertex -4.626438e+01 -1.500000e+00 -3.705938e+01
      vertex -4.121616e+01 -1.500000e+00 -3.692511e+01
    endloop
  endfacet
  facet normal -9.996465e-01  0.000000e+00 -2.658693e-02
    outer loop
      vertex -4.617930e+01  1.500000e+00 -4.025824e+01
      vertex -4.611283e+01  1.500000e+00 -4.275736e+01
      vertex -4.617930e+01 -1.500000e+00 -4.025824e+01
    endloop
  endfacet
  facet normal -9.996465e-01  0.000000e+00 -2.658693e-02
    outer loop
      vertex -4.617930e+01 -1.500000e+00 -4.025824e+01
      vertex -4.611283e+01  1.500000e+00 -4.275736e+01
      vertex -4.611283e+01 -1.500000e+00 -4.275736e+01
    endloop
  endfacet
  facet normal -9.996465e-01  0.000000e+00 -2.658635e-02
    outer loop
      vertex -4.850000e+01  1.500000e+00  4.700000e+01
      vertex -4.626438e+01  1.500000e+00 -3.705938e+01
      vertex -4.850000e+01 -1.500000e+00  4.700000e+01
    endloop
  endfacet
  facet normal -9.996465e-01  0.000000e+00 -2.658635e-02
    outer loop
      vertex -4.850000e+01 -1.500000e+00  4.700000e+01
      vertex -4.626438e+01  1.500000e+00 -3.705938e+01
      vertex -4.626438e+01 -1.500000e+00 -3.705938e+01
    endloop
  endfacet
  facet normal -2.658656e-02  0.000000e+00  9.996465e-01
    outer loop
      vertex -4.113109e+01 -1.500000e+00 -4.012398e+01
      vertex -4.113109e+01  1.500000e+00 -4.012398e+01
      vertex -4.617930e+01 -1.500000e+00 -4.025824e+01
    endloop
  endfacet
  facet normal -2.658656e-02  0.000000e+00  9.996465e-01
    outer loop
      vertex -4.617930e+01 -1.500000e+00 -4.025824e+01
      vertex -4.113109e+01  1.500000e+00 -4.012398e+01
      vertex -4.617930e+01  1.500000e+00 -4.025824e+01
    endloop
  endfacet
  facet normal -9.996465e-01  0.000000e+00 -2.658607e-02
    outer loop
      vertex -4.121616e+01  1.500000e+00 -3.692511e+01
      vertex -4.113109e+01  1.500000e+00 -4.012398e+01
      vertex -4.121616e+01 -1.500000e+00 -3.692511e+01
    endloop
  endfacet
  facet normal -9.996465e-01  0.000000e+00 -2.658607e-02
    outer loop
      vertex -4.121616e+01 -1.500000e+00 -3.692511e+01
      vertex -4.113109e+01  1.500000e+00 -4.012398e+01
      vertex -4.113109e+01 -1.500000e+00 -4.012398e+01
    endloop
  endfacet
  facet normal  2.658656e-02  0.000000e+00 -9.996465e-01
    outer loop
      vertex -4.626438e+01 -1.500000e+00 -3.705938e+01
      vertex -4.626438e+01  1.500000e+00 -3.705938e+01
      vertex -4.121616e+01 -1.500000e+00 -3.692511e+01
    endloop
  endfacet
  facet normal  2.658656e-02  0.000000e+00 -9.996465e-01
    outer loop
      vertex -4.121616e+01 -1.500000e+00 -3.692511e+01
      vertex -4.626438e+01  1.500000e+00 -3.705938e+01
      vertex -4.121616e+01  1.500000e+00 -3.692511e+01
    endloop
  endfacet
  facet normal  2.658656e-02  0.000000e+00  9.996465e-01
    outer loop
      vertex  4.113109e+01 -1.500000e+00 -4.012398e+01
      vertex  4.617930e+01 -1.500000e+00 -4.025824e+01
      vertex  4.113109e+01  1.500000e+00 -4.012398e+01
    endloop
  endfacet
  facet normal  2.658656e-02  0.000000e+00  9.996465e-01
    outer loop
      vertex  4.113109e+01  1.500000e+00 -4.012398e+01
      vertex  4.617930e+01 -1.500000e+00 -4.025824e+01
      vertex  4.617930e+01  1.500000e+00 -4.025824e+01
    endloop
  endfacet
  facet normal -2.658656e-02  0.000000e+00 -9.996465e-01
    outer loop
      vertex  4.626438e+01 -1.500000e+00 -3.705938e+01
      vertex  4.121616e+01 -1.500000e+00 -3.692511e+01
      vertex  4.626438e+01  1.500000e+00 -3.705938e+01
    endloop
  endfacet
  facet normal -2.658656e-02  0.000000e+00 -9.996465e-01
    outer loop
      vertex  4.626438e+01  1.500000e+00 -3.705938e+01
      vertex  4.121616e+01 -1.500000e+00 -3.692511e+01
      vertex  4.121616e+01  1.500000e+00 -3.692511e+01
    endloop
  endfacet
  facet normal  9.996465e-01  0.000000e+00 -2.658635e-02
    outer loop
      vertex  4.626438e+01  1.500000e+00 -3.705938e+01
      vertex  4.850000e+01  1.500000e+00  4.700000e+01
      vertex  4.626438e+01 -1.500000e+00 -3.705938e+01
    endloop
  endfacet
  facet normal  9.996465e-01  0.000000e+00 -2.658635e-02
    outer loop
      vertex  4.626438e+01 -1.500000e+00 -3.705938e+01
      vertex  4.850000e+01  1.500000e+00  4.700000e+01
      vertex  4.850000e+01 -1.500000e+00  4.700000e+01
    endloop
  endfacet
  facet normal  9.996465e-01  0.000000e+00 -2.658693e-02
    outer loop
      vertex  4.611283e+01  1.500000e+00 -4.275736e+01
      vertex  4.617930e+01  1.500000e+00 -4.025824e+01
      vertex  4.611283e+01 -1.500000e+00 -4.275736e+01
    endloop
  endfacet
  facet normal  9.996465e-01  0.000000e+00 -2.658693e-02
    outer loop
      vertex  4.611283e+01 -1.500000e+00 -4.275736e+01
      vertex  4.617930e+01  1.500000e+00 -4.025824e+01
      vertex  4.617930e+01 -1.500000e+00 -4.025824e+01
    endloop
  endfacet
  facet normal  9.996465e-01  0.000000e+00 -2.658607e-02
    outer loop
      vertex  4.121616e+01  1.500000e+00 -3.692511e+01
      vertex  4.121616e+01 -1.500000e+00 -3.692511e+01
      vertex  4.113109e+01  1.500000e+00 -4.012398e+01
    endloop
  endfacet
  facet normal  9.996465e-01  0.000000e+00 -2.658607e-02
    outer loop
      vertex  4.113109e+01  1.500000e+00 -4.012398e+01
      vertex  4.121616e+01 -1.500000e+00 -3.692511e+01
      vertex  4.113109e+01 -1.500000e+00 -4.012398e+01
    endloop
  endfacet
  facet normal  -0.000000e+00  0.000000e+00  1.000000e+00
    outer loop
      vertex  4.850000e+01  1.500000e+00  4.700000e+01
      vertex -4.850000e+01  1.500000e+00  4.700000e+01
      vertex  4.850000e+01 -1.500000e+00  4.700000e+01
    endloop
  endfacet
  facet normal  0.000000e+00  0.000000e+00  1.000000e+00
    outer loop
      vertex  4.850000e+01 -1.500000e+00  4.700000e+01
      vertex -4.850000e+01  1.500000e+00  4.700000e+01
      vertex -4.850000e+01 -1.500000e+00  4.700000e+01
    endloop
  endfacet
  facet normal -7.071071e-01  0.000000e+00 -7.071065e-01
    outer loop
      vertex -4.187020e+01  1.500000e+00 -4.700000e+01
      vertex -4.187020e+01 -1.500000e+00 -4.700000e+01
      vertex -4.611283e+01  1.500000e+00 -4.275736e+01
    endloop
  endfacet
  facet normal -7.071071e-01  -0.000000e+00 -7.071065e-01
    outer loop
      vertex -4.611283e+01  1.500000e+00 -4.275736e+01
      vertex -4.187020e+01 -1.500000e+00 -4.700000e+01
      vertex -4.611283e+01 -1.500000e+00 -4.275736e+01
    endloop
  endfacet
  facet normal  -0.000000e+00  0.000000e+00 -1.000000e+00
    outer loop
      vertex -4.187020e+01  1.500000e+00 -4.700000e+01
      vertex -1.600000e+00  1.500000e+00 -4.700000e+01
      vertex -4.187020e+01 -1.500000e+00 -4.700000e+01
    endloop
  endfacet
  facet normal  0.000000e+00  0.000000e+00 -1.000000e+00
    outer loop
      vertex -4.187020e+01 -1.500000e+00 -4.700000e+01
      vertex -1.600000e+00  1.500000e+00 -4.700000e+01
      vertex -1.600000e+00 -1.500000e+00 -4.700000e+01
    endloop
  endfacet
  facet normal  1.000000e+00  -0.000000e+00  0.000000e+00
    outer loop
      vertex -1.600000e+00  1.500000e+00  5.000000e-02
      vertex -1.600000e+00 -1.500000e+00  5.000000e-02
      vertex -1.600000e+00  1.500000e+00 -4.700000e+01
    endloop
  endfacet
  facet normal  1.000000e+00  0.000000e+00  0.000000e+00
    outer loop
      vertex -1.600000e+00  1.500000e+00 -4.700000e+01
      vertex -1.600000e+00 -1.500000e+00  5.000000e-02
      vertex -1.600000e+00 -1.500000e+00 -4.700000e+01
    endloop
  endfacet
  facet normal  0.000000e+00  0.000000e+00 -1.000000e+00
    outer loop
      vertex  1.600000e+00  1.500000e+00  5.000000e-02
      vertex  1.600000e+00 -1.500000e+00  5.000000e-02
      vertex -1.600000e+00  1.500000e+00  5.000000e-02
    endloop
  endfacet
  facet normal  0.000000e+00  0.000000e+00 -1.000000e+00
    outer loop
      vertex -1.600000e+00  1.500000e+00  5.000000e-02
      vertex  1.600000e+00 -1.500000e+00  5.000000e-02
      vertex -1.600000e+00 -1.500000e+00  5.000000e-02
    endloop
  endfacet
  facet normal -1.000000e+00  0.000000e+00  0.000000e+00
    outer loop
      vertex  1.600000e+00  1.500000e+00 -4.700000e+01
      vertex  1.600000e+00 -1.500000e+00 -4.700000e+01
      vertex  1.600000e+00  1.500000e+00  5.000000e-02
    endloop
  endfacet
  facet normal -1.000000e+00  -0.000000e+00  0.000000e+00
    outer loop
      vertex  1.600000e+00  1.500000e+00  5.000000e-02
      vertex  1.600000e+00 -1.500000e+00 -4.700000e+01
      vertex  1.600000e+00 -1.500000e+00  5.000000e-02
    endloop
  endfacet
  facet normal  -0.000000e+00  0.000000e+00 -1.000000e+00
    outer loop
      vertex  1.600000e+00  1.500000e+00 -4.700000e+01
      vertex  4.187020e+01  1.500000e+00 -4.700000e+01
      vertex  1.600000e+00 -1.500000e+00 -4.700000e+01
    endloop
  endfacet
  facet normal  0.000000e+00  0.000000e+00 -1.000000e+00
    outer loop
      vertex  1.600000e+00 -1.500000e+00 -4.700000e+01
      vertex  4.187020e+01  1.500000e+00 -4.700000e+01
      vertex  4.187020e+01 -1.500000e+00 -4.700000e+01
    endloop
  endfacet
  facet normal  7.071071e-01  0.000000e+00 -7.071065e-01
    outer loop
      vertex  4.187020e+01  1.500000e+00 -4.700000e+01
      vertex  4.611283e+01  1.500000e+00 -4.275736e+01
      vertex  4.187020e+01 -1.500000e+00 -4.700000e+01
    endloop
  endfacet
  facet normal  7.071071e-01  0.000000e+00 -7.071065e-01
    outer loop
      vertex  4.187020e+01 -1.500000e+00 -4.700000e+01
      vertex  4.611283e+01  1.500000e+00 -4.275736e+01
      vertex  4.611283e+01 -1.500000e+00 -4.275736e+01
    endloop
  endfacet
endsolid CATIA STL
